<?xml version="1.0" encoding="utf-8"?>
<!-- Generator: Adobe Illustrator 23.0.1, SVG Export Plug-In . SVG Version: 6.00 Build 0)  -->
<svg version="1.1" xmlns="http://www.w3.org/2000/svg" xmlns:xlink="http://www.w3.org/1999/xlink" x="0px" y="0px"
	 viewBox="0 0 480.26 160.09" style="enable-background:new 0 0 480.26 160.09;" xml:space="preserve">
<style type="text/css">
	.st0{fill:#ADE498;}
	.st1{fill:none;}
	.st2{font-family:'Ebrima';}
	.st3{font-size:88.087px;}
	.st4{font-size:105.7044px;}
</style>
<g id="Layer_3">
	<g>
		<polygon class="st0" points="15.42,138.89 117.62,138.89 213.08,6.79 301.64,146.32 15.42,146.99 		"/>
		<polygon class="st0" points="235.52,78 272.09,32.55 366.59,146.99 211.58,147 		"/>
	</g>
</g>
<g id="Layer_1">
	<path d="M422.47,99.27c6.78,12.81,10.54,24.28,8.41,25.63c-2.13,1.34-9.36-7.95-16.14-20.76"/>
	<path d="M417.22,75.23c0.92-0.02,2.07,4.9,1.6,9.25c-0.49,4.49-2.77,9.01-3.67,8.75c-1.22-0.36,0.62-8.31,0.7-8.99
		C415.94,83.5,415.97,75.25,417.22,75.23z"/>
	<rect x="329.06" y="39.73" class="st1" width="141.29" height="66.16"/>
	<text transform="matrix(0.9167 0 0 1 329.0573 104.9173)" class="st2 st3">icos</text>
	<g>
		<rect x="280.28" y="55.36" class="st1" width="64.88" height="80.69"/>
		<text transform="matrix(0.9167 0 0 1 280.279 133.5833)" class="st2 st4">T</text>
	</g>
	<rect x="54.85" y="39.73" class="st1" width="222.82" height="66.16"/>
	<text transform="matrix(0.9167 0 0 1 54.8517 104.9173)" class="st2 st3">xplora</text>
</g>
<g id="Layer_5">
	<rect x="7.18" y="55.36" class="st1" width="76.24" height="113.91"/>
	<text transform="matrix(0.9167 0 0 1 7.1818 133.5833)" class="st0 st2 st4">E</text>
</g>
</svg>
